<svg xmlns="http://www.w3.org/2000/svg" viewBox="0 0 1440 810" role="img" aria-labelledby="title desc">
  <title id="title">Halligalli Arena feature showcase</title>
  <desc id="desc">A dark casino-style product board showing a real-time multiplayer Halligalli table, room code, shared score race, and setup commands.</desc>
  <defs>
    <radialGradient id="page" cx="22%" cy="12%" r="92%">
      <stop offset="0" stop-color="#173723"/>
      <stop offset=".38" stop-color="#0b1422"/>
      <stop offset="1" stop-color="#05080f"/>
    </radialGradient>
    <linearGradient id="gold" x1="0" x2="1" y1="0" y2="1">
      <stop offset="0" stop-color="#fff0a3"/>
      <stop offset=".45" stop-color="#f0c44a"/>
      <stop offset="1" stop-color="#9b7311"/>
    </linearGradient>
    <linearGradient id="card" x1="0" x2="1" y1="0" y2="1">
      <stop offset="0" stop-color="#fffaf0"/>
      <stop offset="1" stop-color="#eadfca"/>
    </linearGradient>
    <filter id="soft" x="-20%" y="-20%" width="140%" height="140%">
      <feGaussianBlur stdDeviation="18"/>
    </filter>
    <filter id="lift" x="-25%" y="-25%" width="150%" height="150%">
      <feDropShadow dx="0" dy="18" stdDeviation="14" flood-color="#020409" flood-opacity=".42"/>
    </filter>
  </defs>
  <rect width="1440" height="810" fill="url(#page)"/>
  <circle cx="1118" cy="152" r="210" fill="#f0c44a" opacity=".1" filter="url(#soft)"/>
  <circle cx="238" cy="694" r="220" fill="#1f5840" opacity=".34" filter="url(#soft)"/>

  <text x="82" y="108" fill="#ede8d5" font-family="Georgia, serif" font-size="72" font-style="italic" font-weight="700">Halligalli Arena</text>
  <text x="86" y="154" fill="#c7c0ad" font-family="Verdana, sans-serif" font-size="24">Real-time multiplayer Halligalli for exact-five card races.</text>

  <g transform="translate(82 218)">
    <rect width="780" height="430" rx="28" fill="#081713" stroke="#ffffff" stroke-opacity=".13"/>
    <ellipse cx="390" cy="224" rx="318" ry="178" fill="#123621" stroke="#e8c34a" stroke-opacity=".24" stroke-width="3"/>
    <ellipse cx="390" cy="224" rx="252" ry="132" fill="none" stroke="#ffffff" stroke-opacity=".07" stroke-width="2"/>
    <text x="34" y="48" fill="#f0c44a" font-family="Verdana, sans-serif" font-size="19" font-weight="700">LIVE MULTIPLAYER TABLE</text>

    <g filter="url(#lift)">
      <rect x="348" y="76" width="84" height="108" rx="13" fill="url(#card)" stroke="#d5b552" stroke-width="2"/>
      <rect x="348" y="272" width="84" height="108" rx="13" fill="url(#card)" stroke="#d5b552" stroke-width="2"/>
      <rect x="132" y="172" width="84" height="108" rx="13" fill="url(#card)" stroke="#d5b552" stroke-width="2"/>
      <rect x="564" y="172" width="84" height="108" rx="13" fill="url(#card)" stroke="#d5b552" stroke-width="2"/>
    </g>

    <g fill="#d94545">
      <circle cx="383" cy="126" r="7"/>
      <circle cx="397" cy="126" r="7"/>
    </g>
    <g fill="#7d56bd">
      <circle cx="383" cy="320" r="7"/>
      <circle cx="397" cy="320" r="7"/>
      <circle cx="390" cy="335" r="7"/>
    </g>
    <g fill="#f0c44a">
      <circle cx="166" cy="218" r="7"/>
      <circle cx="181" cy="218" r="7"/>
      <circle cx="174" cy="234" r="7"/>
    </g>
    <g fill="#4fae72">
      <circle cx="606" cy="218" r="7"/>
      <circle cx="606" cy="236" r="7"/>
    </g>

    <g>
      <circle cx="390" cy="224" r="72" fill="#05080f" opacity=".72"/>
      <circle cx="390" cy="224" r="44" fill="url(#gold)"/>
      <text x="366" y="235" fill="#1a0f00" font-family="Georgia, serif" font-size="32" font-weight="800">5</text>
      <text x="406" y="235" fill="#1a0f00" font-family="Verdana, sans-serif" font-size="15" font-weight="700">hit</text>
    </g>

    <g font-family="Verdana, sans-serif" font-size="15" font-weight="700">
      <text x="350" y="66" fill="#ede8d5">MIA</text>
      <text x="352" y="408" fill="#ede8d5">YOU</text>
      <text x="122" y="160" fill="#ede8d5">KAI</text>
      <text x="600" y="160" fill="#ede8d5">LEE</text>
    </g>
  </g>

  <g transform="translate(918 226)">
    <rect width="430" height="142" rx="24" fill="#ffffff" fill-opacity=".058" stroke="#ffffff" stroke-opacity=".13"/>
    <text x="30" y="49" fill="#ede8d5" font-family="Georgia, serif" font-size="34" font-weight="700">Real-time rooms</text>
    <text x="30" y="84" fill="#c2bbaa" font-family="Verdana, sans-serif" font-size="17">Create a code, ready up, and race friends.</text>
    <rect x="30" y="104" width="102" height="24" rx="12" fill="#e8c34a" fill-opacity=".2"/>
    <text x="52" y="122" fill="#f0c44a" font-family="Verdana, sans-serif" font-size="13" font-weight="700">4-CHAR</text>
  </g>

  <g transform="translate(918 402)">
    <rect width="430" height="142" rx="24" fill="#ffffff" fill-opacity=".058" stroke="#ffffff" stroke-opacity=".13"/>
    <text x="30" y="49" fill="#ede8d5" font-family="Georgia, serif" font-size="34" font-weight="700">Shared score race</text>
    <text x="30" y="84" fill="#c2bbaa" font-family="Verdana, sans-serif" font-size="17">Hits, penalties, streaks, and final results.</text>
    <polyline points="30,120 92,108 154,116 222,98 290,109 372,92" fill="none" stroke="#f0c44a" stroke-width="5" stroke-linecap="round" stroke-linejoin="round"/>
  </g>

  <g transform="translate(918 578)">
    <rect width="430" height="96" rx="18" fill="#05080f" stroke="#ffffff" stroke-opacity=".11"/>
    <text x="30" y="38" fill="#6fcf97" font-family="ui-monospace, SFMono-Regular, Menlo, monospace" font-size="17">$ pnpm run dev</text>
    <text x="30" y="68" fill="#f0c44a" font-family="ui-monospace, SFMono-Regular, Menlo, monospace" font-size="17">$ pnpm run dev:server</text>
  </g>

  <text x="86" y="728" fill="#827c6e" font-family="Verdana, sans-serif" font-size="17">React 19 · Vite 8 · TypeScript · socket.io · Vitest · localStorage progress</text>
</svg>
