<svg xmlns="http://www.w3.org/2000/svg" viewBox="0 0 1440 810" role="img" aria-labelledby="title desc">
  <title id="title">Halligalli Arena feature showcase</title>
  <desc id="desc">A dark casino-style product board showing a real-time multiplayer Halligalli table with fruit-count cards, a bell, and setup commands.</desc>
  <defs>
    <radialGradient id="page" cx="22%" cy="12%" r="92%">
      <stop offset="0" stop-color="#173723"/>
      <stop offset=".38" stop-color="#0b1422"/>
      <stop offset="1" stop-color="#05080f"/>
    </radialGradient>
    <linearGradient id="gold" x1="0" x2="1" y1="0" y2="1">
      <stop offset="0" stop-color="#fff0a3"/>
      <stop offset=".45" stop-color="#f0c44a"/>
      <stop offset="1" stop-color="#9b7311"/>
    </linearGradient>
    <linearGradient id="card" x1="0" x2="1" y1="0" y2="1">
      <stop offset="0" stop-color="#fffaf0"/>
      <stop offset="1" stop-color="#eadfca"/>
    </linearGradient>
    <filter id="soft" x="-20%" y="-20%" width="140%" height="140%">
      <feGaussianBlur stdDeviation="18"/>
    </filter>
    <filter id="lift" x="-25%" y="-25%" width="150%" height="150%">
      <feDropShadow dx="0" dy="18" stdDeviation="14" flood-color="#020409" flood-opacity=".38"/>
    </filter>
    <symbol id="strawberry" viewBox="0 0 64 64">
      <path d="M32 57C20 47 13 36 13 25c0-9 7-16 16-11 1 1 2 2 3 3 1-1 2-2 3-3 9-5 16 2 16 11 0 11-7 22-19 32Z" fill="#d94545" stroke="#b93030" stroke-width="2" stroke-linejoin="round"/>
      <path d="M23 15c4 0 6 1 9 5 3-4 5-5 9-5-2-5-5-7-9-7s-7 2-9 7Z" fill="#4fae72"/>
      <path d="M29 28l-3 2m13 2l-3 2m-6 7l-3 2m15 0l-3 2" stroke="#ffd166" stroke-width="3" stroke-linecap="round"/>
    </symbol>
    <symbol id="banana" viewBox="0 0 64 64">
      <path d="M11 39c17 15 38 7 47-18-14 12-30 16-47 8-3 4-3 8 0 10Z" fill="#f0c44a" stroke="#b58a1b" stroke-width="2" stroke-linejoin="round"/>
      <path d="M15 34c16 7 30 3 41-10-10 21-29 29-45 15" fill="none" stroke="#806012" stroke-width="4" stroke-linecap="round"/>
      <path d="M12 30c5 3 9 5 14 6" stroke="#fff0a3" stroke-width="3" stroke-linecap="round" opacity=".75"/>
    </symbol>
    <symbol id="lemon" viewBox="0 0 64 64">
      <path d="M13 35c7-16 21-24 38-22 3 17-5 31-22 38-8-2-14-8-16-16Z" fill="#f0c44a" stroke="#c89620" stroke-width="2" stroke-linejoin="round"/>
      <path d="M33 15c6-8 12-10 18-7-3 7-8 9-18 7Z" fill="#4fae72"/>
      <path d="M20 39c10-4 19-11 27-21" stroke="#fff0a3" stroke-width="5" stroke-linecap="round" opacity=".72"/>
      <path d="M27 45c6-3 12-8 18-15" stroke="#d39c21" stroke-width="3" stroke-linecap="round" opacity=".55"/>
    </symbol>
    <symbol id="grapes" viewBox="0 0 64 64">
      <path d="M35 13c7-7 13-7 19-3-5 6-12 7-19 3Z" fill="#4fae72"/>
      <g fill="#7d56bd" stroke="#6240a0" stroke-width="2">
        <circle cx="25" cy="25" r="8"/>
        <circle cx="39" cy="25" r="8"/>
        <circle cx="32" cy="38" r="9"/>
        <circle cx="23" cy="50" r="7"/>
        <circle cx="41" cy="50" r="7"/>
      </g>
    </symbol>
    <symbol id="bell" viewBox="0 0 64 64">
      <path d="M18 45h28c-4-5-5-10-5-18 0-8-5-14-12-14s-12 6-12 14c0 8-1 13-5 18Z" fill="url(#gold)" stroke="#8b650f" stroke-width="3" stroke-linejoin="round"/>
      <path d="M25 45c1 5 4 8 7 8s6-3 7-8Z" fill="#7b580d"/>
      <path d="M25 16c2-4 4-6 7-6s5 2 7 6" fill="none" stroke="#fff0a3" stroke-width="4" stroke-linecap="round"/>
      <path d="M23 27c1-4 3-7 7-9" fill="none" stroke="#fff0a3" stroke-width="4" stroke-linecap="round" opacity=".75"/>
    </symbol>
  </defs>
  <rect width="1440" height="810" fill="url(#page)"/>
  <circle cx="1118" cy="152" r="210" fill="#f0c44a" opacity=".1" filter="url(#soft)"/>
  <circle cx="238" cy="694" r="220" fill="#1f5840" opacity=".34" filter="url(#soft)"/>

  <text x="82" y="108" fill="#ede8d5" font-family="Georgia, serif" font-size="72" font-style="italic" font-weight="700">Halligalli Arena</text>
  <text x="86" y="154" fill="#c7c0ad" font-family="Verdana, sans-serif" font-size="24">Real-time multiplayer Halligalli for exact-five card races.</text>

  <g transform="translate(82 218)">
    <rect width="780" height="430" rx="28" fill="#081713" stroke="#ffffff" stroke-opacity=".13"/>
    <ellipse cx="390" cy="214" rx="362" ry="198" fill="#123621" stroke="#e8c34a" stroke-opacity=".24" stroke-width="3"/>
    <ellipse cx="390" cy="214" rx="282" ry="134" fill="none" stroke="#ffffff" stroke-opacity=".07" stroke-width="2"/>

    <g filter="url(#lift)">
      <rect x="342" y="44" width="96" height="120" rx="15" fill="url(#card)" stroke="#d5b552" stroke-width="2.5"/>
      <rect x="354" y="58" width="72" height="92" rx="10" fill="none" stroke="#ffffff" stroke-opacity=".68" stroke-width="2.5"/>
      <rect x="342" y="284" width="96" height="120" rx="15" fill="url(#card)" stroke="#d5b552" stroke-width="2.5"/>
      <rect x="354" y="298" width="72" height="92" rx="10" fill="none" stroke="#ffffff" stroke-opacity=".68" stroke-width="2.5"/>
      <rect x="100" y="154" width="96" height="120" rx="15" fill="url(#card)" stroke="#d5b552" stroke-width="2.5"/>
      <rect x="112" y="168" width="72" height="92" rx="10" fill="none" stroke="#ffffff" stroke-opacity=".68" stroke-width="2.5"/>
      <rect x="584" y="154" width="96" height="120" rx="15" fill="url(#card)" stroke="#d5b552" stroke-width="2.5"/>
      <rect x="596" y="168" width="72" height="92" rx="10" fill="none" stroke="#ffffff" stroke-opacity=".68" stroke-width="2.5"/>
    </g>
    <use href="#strawberry" x="365" y="79" width="50" height="50"/>
    <g>
      <use href="#banana" x="128" y="165" width="40" height="40"/>
      <use href="#banana" x="128" y="194" width="40" height="40"/>
      <use href="#banana" x="128" y="223" width="40" height="40"/>
    </g>
    <g>
      <use href="#lemon" x="587" y="192" width="42" height="42"/>
      <use href="#lemon" x="635" y="192" width="42" height="42"/>
    </g>
    <g>
      <use href="#grapes" x="347" y="297" width="38" height="38"/>
      <use href="#grapes" x="395" y="297" width="38" height="38"/>
      <use href="#grapes" x="347" y="354" width="38" height="38"/>
      <use href="#grapes" x="395" y="354" width="38" height="38"/>
    </g>

    <g>
      <circle cx="390" cy="222" r="50" fill="#f0c44a" fill-opacity=".15"/>
      <use href="#bell" x="354" y="186" width="72" height="72"/>
    </g>
  </g>

  <g transform="translate(918 226)">
    <rect width="430" height="142" rx="24" fill="#ffffff" fill-opacity=".058" stroke="#ffffff" stroke-opacity=".13"/>
    <text x="30" y="49" fill="#ede8d5" font-family="Georgia, serif" font-size="34" font-weight="700">Real-time rooms</text>
    <text x="30" y="84" fill="#c2bbaa" font-family="Verdana, sans-serif" font-size="17">Create a code, ready up, and race friends.</text>
  </g>

  <g transform="translate(918 402)">
    <rect width="430" height="142" rx="24" fill="#ffffff" fill-opacity=".058" stroke="#ffffff" stroke-opacity=".13"/>
    <text x="30" y="49" fill="#ede8d5" font-family="Georgia, serif" font-size="34" font-weight="700">Shared score race</text>
    <text x="30" y="84" fill="#c2bbaa" font-family="Verdana, sans-serif" font-size="17">Hits, penalties, streaks, and final results.</text>
  </g>

  <g transform="translate(918 578)">
    <rect width="430" height="96" rx="18" fill="#05080f" stroke="#ffffff" stroke-opacity=".11"/>
    <text x="30" y="38" fill="#6fcf97" font-family="ui-monospace, SFMono-Regular, Menlo, monospace" font-size="17">$ pnpm run dev</text>
    <text x="30" y="68" fill="#f0c44a" font-family="ui-monospace, SFMono-Regular, Menlo, monospace" font-size="17">$ pnpm run dev:server</text>
  </g>

  <text x="86" y="728" fill="#827c6e" font-family="Verdana, sans-serif" font-size="17">React 19 · Vite 8 · TypeScript · socket.io · Vitest · localStorage progress</text>
</svg>
